<svg width="32" height="32" viewBox="0 0 32 32" fill="none" xmlns="http://www.w3.org/2000/svg">
<path d="M5.03732 4.87332C4.79599 5.35332 4.67732 5.94799 4.43999 7.13466L3.64266 11.1213C3.52966 11.6649 3.52878 12.2258 3.64008 12.7697C3.75139 13.3136 3.97253 13.8291 4.28997 14.2846C4.60742 14.7401 5.01448 15.126 5.48624 15.4187C5.95801 15.7114 6.48454 15.9047 7.03362 15.9869C7.5827 16.069 8.14277 16.0382 8.67953 15.8964C9.2163 15.7545 9.71847 15.5047 10.1553 15.162C10.5921 14.8194 10.9545 14.3912 11.2201 13.9036C11.4857 13.4161 11.649 12.8795 11.7 12.3267L11.7933 11.4067C11.7428 11.9918 11.8149 12.581 12.005 13.1367C12.195 13.6924 12.499 14.2023 12.8973 14.6339C13.2956 15.0654 13.7795 15.4092 14.3182 15.6431C14.8569 15.8771 15.4385 15.9961 16.0258 15.9926C16.6131 15.989 17.1931 15.863 17.729 15.6226C18.2648 15.3822 18.7446 15.0326 19.1377 14.5963C19.5308 14.1599 19.8285 13.6464 20.0119 13.0884C20.1953 12.5305 20.2602 11.9405 20.2027 11.356L20.3 12.3267C20.351 12.8795 20.5143 13.4161 20.7799 13.9036C21.0455 14.3912 21.4078 14.8194 21.8447 15.162C22.2815 15.5047 22.7837 15.7545 23.3204 15.8964C23.8572 16.0382 24.4173 16.069 24.9664 15.9869C25.5154 15.9047 26.042 15.7114 26.5137 15.4187C26.9855 15.126 27.3926 14.7401 27.71 14.2846C28.0275 13.8291 28.2486 13.3136 28.3599 12.7697C28.4712 12.2258 28.4703 11.6649 28.3573 11.1213L27.56 7.13466C27.3227 5.94799 27.204 5.35466 26.9627 4.87332C26.7112 4.37204 26.3571 3.92924 25.9235 3.57366C25.4898 3.21808 24.9862 2.95766 24.4453 2.80932C23.9253 2.66666 23.32 2.66666 22.1093 2.66666H9.89066C8.67999 2.66666 8.07466 2.66666 7.55466 2.80932C7.01381 2.95766 6.51021 3.21808 6.07653 3.57366C5.64285 3.92924 5.28878 4.37204 5.03732 4.87332ZM24.3587 18C25.4004 18.0026 26.4252 17.7358 27.3333 17.2253V18.6667C27.3333 23.6947 27.3333 26.2093 25.7707 27.7707C24.5133 29.0293 22.64 29.2733 19.3333 29.3213V24.6667C19.3333 23.42 19.3333 22.7973 19.0653 22.3333C18.8898 22.0293 18.6373 21.7769 18.3333 21.6013C17.8693 21.3333 17.2467 21.3333 16 21.3333C14.7533 21.3333 14.1307 21.3333 13.6667 21.6013C13.3626 21.7769 13.1102 22.0293 12.9347 22.3333C12.6667 22.7973 12.6667 23.42 12.6667 24.6667V29.3213C9.35999 29.2733 7.48666 29.028 6.22932 27.7707C4.66666 26.2093 4.66666 23.6947 4.66666 18.6667V17.2253C5.57521 17.736 6.60043 18.0029 7.64266 18C9.18351 18.001 10.667 17.4156 11.792 16.3627C12.9383 17.4191 14.4411 18.0038 16 18C17.5588 18.0038 19.0617 17.4191 20.208 16.3627C21.333 17.4156 22.8178 18.001 24.3587 18Z" fill="#48484C"/>
</svg>
