<svg width="36" height="36" viewBox="0 0 36 36" fill="none" xmlns="http://www.w3.org/2000/svg">
<path fill-rule="evenodd" clip-rule="evenodd" d="M28.125 28.3905C28.8158 27.7717 29.25 26.874 29.25 25.875V15.6982C29.2501 15.1813 29.1315 14.6712 28.9033 14.2074C28.6751 13.7436 28.3434 13.3383 27.9338 13.023L20.0588 6.966C19.4686 6.5117 18.7448 6.26535 18 6.26535C17.2552 6.26535 16.5314 6.5117 15.9412 6.966L8.06625 13.023C7.65632 13.3386 7.32442 13.7441 7.09619 14.2084C6.86797 14.6727 6.74952 15.1832 6.75 15.7005V25.875C6.74882 26.3172 6.83478 26.7553 7.00299 27.1643C7.1712 27.5733 7.41834 27.9451 7.73031 28.2586C8.04227 28.572 8.41294 28.8209 8.82113 28.991C9.22932 29.1611 9.66703 29.2491 10.1093 29.25H11.25V21.375C11.25 20.1815 11.7241 19.0369 12.568 18.193C13.4119 17.3491 14.5565 16.875 15.75 16.875H20.25C21.4435 16.875 22.5881 17.3491 23.432 18.193C24.2759 19.0369 24.75 20.1815 24.75 21.375V29.25H25.8908C26.748 29.2455 27.5333 28.9215 28.125 28.3905ZM32.625 25.875C32.625 27.6652 31.9138 29.3821 30.648 30.648C29.3821 31.9138 27.6652 32.625 25.875 32.625H10.125C8.33479 32.625 6.6179 31.9138 5.35203 30.648C4.08616 29.3821 3.375 27.6652 3.375 25.875V15.6982C3.37507 14.6647 3.61246 13.645 4.06888 12.7178C4.5253 11.7905 5.18855 10.9804 6.0075 10.35L13.8825 4.293C15.0628 3.38439 16.5105 2.89171 18 2.89171C19.4895 2.89171 20.9372 3.38439 22.1175 4.293L29.9925 10.35C30.8118 10.9807 31.4752 11.7911 31.9316 12.7188C32.388 13.6465 32.6253 14.6666 32.625 15.7005V25.875ZM21.375 21.375C21.375 21.0766 21.2565 20.7905 21.0455 20.5795C20.8345 20.3685 20.5484 20.25 20.25 20.25H15.75C15.4516 20.25 15.1655 20.3685 14.9545 20.5795C14.7435 20.7905 14.625 21.0766 14.625 21.375V29.25H21.375V21.375Z" fill="white"/>
</svg>
