<svg width="36" height="36" viewBox="0 0 36 36" fill="none" xmlns="http://www.w3.org/2000/svg">
<path d="M18 3.75C18.5967 3.75 19.169 3.98705 19.591 4.40901C20.0129 4.83097 20.25 5.40326 20.25 6C20.25 6.59674 20.0129 7.16903 19.591 7.59099C19.169 8.01295 18.5967 8.25 18 8.25H10.5C10.3011 8.25 10.1103 8.32902 9.96967 8.46967C9.82902 8.61032 9.75 8.80109 9.75 9V27C9.75 27.1989 9.82902 27.3897 9.96967 27.5303C10.1103 27.671 10.3011 27.75 10.5 27.75H17.25C17.8467 27.75 18.419 27.9871 18.841 28.409C19.2629 28.831 19.5 29.4033 19.5 30C19.5 30.5967 19.2629 31.169 18.841 31.591C18.419 32.0129 17.8467 32.25 17.25 32.25H10.5C9.10761 32.25 7.77226 31.6969 6.78769 30.7123C5.80312 29.7277 5.25 28.3924 5.25 27V9C5.25 7.60761 5.80312 6.27226 6.78769 5.28769C7.77226 4.30312 9.10761 3.75 10.5 3.75H18ZM27.09 12.165L31.3335 16.41C31.7549 16.8319 31.9915 17.4037 31.9915 18C31.9915 18.5963 31.7549 19.1681 31.3335 19.59L27.0915 23.835C26.6694 24.2571 26.0969 24.4942 25.5 24.4942C24.9031 24.4942 24.3306 24.2571 23.9085 23.835C23.4864 23.4129 23.2493 22.8404 23.2493 22.2435C23.2493 21.6466 23.4864 21.0741 23.9085 20.652L24.3105 20.25H18C17.4033 20.25 16.831 20.0129 16.409 19.591C15.9871 19.169 15.75 18.5967 15.75 18C15.75 17.4033 15.9871 16.831 16.409 16.409C16.831 15.9871 17.4033 15.75 18 15.75H24.3105L23.9085 15.348C23.6996 15.139 23.5339 14.8909 23.4209 14.6179C23.3079 14.3448 23.2497 14.0522 23.2498 13.7567C23.2499 13.4612 23.3082 13.1686 23.4213 12.8956C23.5344 12.6227 23.7003 12.3747 23.9093 12.1658C24.1182 11.9569 24.3663 11.7912 24.6394 11.6781C24.9124 11.5651 25.205 11.507 25.5005 11.5071C25.796 11.5071 26.0886 11.5654 26.3616 11.6785C26.6346 11.7917 26.8826 11.9575 27.0915 12.1665L27.09 12.165Z" fill="#2B2B30"/>
</svg>
