<svg width="28" height="28" viewBox="0 0 28 28" fill="none" xmlns="http://www.w3.org/2000/svg">
<path d="M24.6879 19.432C24.6418 19.8896 24.4769 20.3272 24.2095 20.7013C23.9661 21.062 23.6376 21.3571 23.253 21.5605C22.8684 21.764 22.4396 21.8696 22.0045 21.868H18.5745C18.5139 22.1821 18.4241 22.4899 18.3062 22.7873C18.0713 23.358 17.7256 23.8764 17.289 24.3126C16.8525 24.7487 16.3337 25.094 15.7629 25.3283C15.1854 25.5617 14.5659 25.676 13.9429 25.6667H13.8495C13.2731 25.6613 12.703 25.5465 12.1695 25.3283C11.5899 25.1033 11.0649 24.7572 10.6295 24.3133C10.1899 23.8798 9.84438 23.3603 9.61452 22.7873C9.49656 22.4895 9.40672 22.1814 9.34619 21.8668H6.05619C5.6265 21.9012 5.19498 21.8287 4.80008 21.6559C4.40518 21.4831 4.05916 21.2153 3.79285 20.8763C3.54091 20.4672 3.38301 20.0073 3.33055 19.5297C3.27809 19.0521 3.33239 18.5689 3.48952 18.1148C3.74321 17.4413 4.0887 16.8061 4.51619 16.2272C5.0076 15.6336 5.33716 14.923 5.47286 14.1645C5.47286 10.7975 5.47286 9.65533 7.31619 7.46433C7.9239 6.7383 8.67964 6.15042 9.53286 5.73999L10.4429 5.29666C10.4874 5.2685 10.5268 5.233 10.5595 5.19166C10.5948 5.14749 10.6188 5.09546 10.6295 5.03999C10.762 4.47107 11.0348 3.94436 11.423 3.50787C11.8112 3.07137 12.3025 2.73898 12.852 2.54099C13.4018 2.34252 13.9925 2.28487 14.5702 2.37331C15.1479 2.46176 15.6943 2.69348 16.1595 3.04733C16.7976 3.55562 17.2154 4.29012 17.3262 5.09833V5.21499C17.3601 5.26262 17.4039 5.30241 17.4545 5.33166L18.2945 5.73999C19.1462 6.14833 19.9022 6.73166 20.5112 7.45266C22.3545 9.65533 22.3545 10.7975 22.3545 14.1645C22.5109 14.9695 22.8679 15.7232 23.3929 16.3555C23.8129 16.9167 24.1535 17.5327 24.4079 18.1848C24.5992 18.5722 24.696 18.9992 24.6879 19.432Z" fill="white"/>
</svg>
