<svg width="32" height="32" viewBox="0 0 32 32" fill="none" xmlns="http://www.w3.org/2000/svg">
<path d="M15.616 4.60001C15.7321 4.44526 15.8008 4.26017 15.8138 4.06715C15.8268 3.87414 15.7836 3.68149 15.6893 3.51256C15.595 3.34364 15.4538 3.20568 15.2827 3.11541C15.1116 3.02515 14.918 2.98645 14.7253 3.00401C7.50663 3.66267 3.4773 9.34001 3.03997 15.144C2.60263 20.9587 5.75596 27.1107 12.9746 28.6987C20.556 30.3653 28.2706 24.916 28.996 17.1707C29.014 16.9789 28.9763 16.786 28.8874 16.6152C28.7984 16.4443 28.6621 16.3028 28.4946 16.2076C28.3272 16.1124 28.1358 16.0676 27.9435 16.0786C27.7512 16.0895 27.5662 16.1558 27.4106 16.2693C23.628 19.028 19.304 18.024 16.5626 15.304C13.824 12.5853 12.8293 8.31867 15.616 4.60001Z" fill="#696973"/>
</svg>
