<svg width="34" height="23" viewBox="0 0 34 23" fill="none" xmlns="http://www.w3.org/2000/svg">
<path d="M5.1 9.85714C6.97531 9.85714 8.5 8.38371 8.5 6.57143C8.5 4.75915 6.97531 3.28571 5.1 3.28571C3.22469 3.28571 1.7 4.75915 1.7 6.57143C1.7 8.38371 3.22469 9.85714 5.1 9.85714ZM28.9 9.85714C30.7753 9.85714 32.3 8.38371 32.3 6.57143C32.3 4.75915 30.7753 3.28571 28.9 3.28571C27.0247 3.28571 25.5 4.75915 25.5 6.57143C25.5 8.38371 27.0247 9.85714 28.9 9.85714ZM30.6 11.5H27.2C26.265 11.5 25.4203 11.8645 24.8041 12.4549C26.945 13.5895 28.4644 15.6379 28.7938 18.0714H32.3C33.2403 18.0714 34 17.3373 34 16.4286V14.7857C34 12.9734 32.4753 11.5 30.6 11.5ZM17 11.5C20.2884 11.5 22.95 8.9279 22.95 5.75C22.95 2.5721 20.2884 0 17 0C13.7116 0 11.05 2.5721 11.05 5.75C11.05 8.9279 13.7116 11.5 17 11.5ZM21.08 13.1429H20.6391C19.5341 13.6562 18.3069 13.9643 17 13.9643C15.6931 13.9643 14.4713 13.6562 13.3609 13.1429H12.92C9.54125 13.1429 6.8 15.792 6.8 19.0571V20.5357C6.8 21.8962 7.94219 23 9.35 23H24.65C26.0578 23 27.2 21.8962 27.2 20.5357V19.0571C27.2 15.792 24.4587 13.1429 21.08 13.1429ZM9.19594 12.4549C8.57969 11.8645 7.735 11.5 6.8 11.5H3.4C1.52469 11.5 0 12.9734 0 14.7857V16.4286C0 17.3373 0.759687 18.0714 1.7 18.0714H5.20094C5.53563 15.6379 7.055 13.5895 9.19594 12.4549Z" fill="#48484C"/>
</svg>
