<svg width="30" height="30" viewBox="0 0 30 30" fill="none" xmlns="http://www.w3.org/2000/svg">
<path d="M11.7087 2.8125H14.375C14.6236 2.8125 14.8621 2.91127 15.0379 3.08709C15.2137 3.2629 15.3125 3.50136 15.3125 3.75C15.3125 3.99864 15.2137 4.2371 15.0379 4.41291C14.8621 4.58873 14.6236 4.6875 14.375 4.6875H11.75C10.335 4.6875 9.32875 4.6875 8.5425 4.7525C7.7675 4.815 7.28625 4.93625 6.905 5.13C6.14079 5.51945 5.51945 6.14079 5.13 6.905C4.93625 7.28625 4.81625 7.7675 4.7525 8.5425C4.68875 9.33 4.6875 10.335 4.6875 11.75V18.25C4.6875 19.6663 4.6875 20.6713 4.7525 21.4575C4.815 22.2325 4.93625 22.7137 5.13 23.095C5.51945 23.8592 6.14079 24.4805 6.905 24.87C7.28625 25.0637 7.7675 25.1838 8.5425 25.2475C9.33 25.3113 10.335 25.3125 11.75 25.3125H18.25C19.6663 25.3125 20.6713 25.3125 21.4575 25.2475C22.2325 25.185 22.7137 25.0637 23.095 24.87C23.8592 24.4805 24.4805 23.8592 24.87 23.095C25.0637 22.7137 25.1838 22.2325 25.2475 21.4575C25.3113 20.67 25.3125 19.665 25.3125 18.25V15.625C25.3125 15.3764 25.4113 15.1379 25.5871 14.9621C25.7629 14.7863 26.0014 14.6875 26.25 14.6875C26.4986 14.6875 26.7371 14.7863 26.9129 14.9621C27.0887 15.1379 27.1875 15.3764 27.1875 15.625V18.2913C27.1875 19.6562 27.1875 20.7388 27.1163 21.61C27.0438 22.5025 26.8913 23.2563 26.5413 23.9462C25.9718 25.0631 25.0634 25.9711 23.9462 26.54C23.2563 26.8913 22.5025 27.0438 21.61 27.1163C20.7388 27.1875 19.6562 27.1875 18.2913 27.1875H11.7087C10.3437 27.1875 9.26125 27.1875 8.39 27.1163C7.4975 27.0438 6.74375 26.8913 6.055 26.5413C4.93767 25.972 4.02927 25.0636 3.46 23.9462C3.10875 23.2563 2.95625 22.5025 2.88375 21.61C2.8125 20.7388 2.8125 19.6562 2.8125 18.2913V11.7087C2.8125 10.3437 2.8125 9.26125 2.88375 8.39C2.95625 7.4975 3.10875 6.74375 3.45875 6.055C4.02834 4.93748 4.93721 4.02906 6.055 3.46C6.7425 3.10875 7.4975 2.95625 8.39 2.88375C9.26125 2.8125 10.3437 2.8125 11.7087 2.8125ZM18.4375 7.1875C18.4375 6.61297 18.5507 6.04406 18.7705 5.51326C18.9904 4.98246 19.3127 4.50016 19.7189 4.09391C20.1252 3.68765 20.6075 3.36539 21.1383 3.14553C21.6691 2.92566 22.238 2.8125 22.8125 2.8125C23.387 2.8125 23.9559 2.92566 24.4867 3.14553C25.0175 3.36539 25.4998 3.68765 25.9061 4.09391C26.3123 4.50016 26.6346 4.98246 26.8545 5.51326C27.0743 6.04406 27.1875 6.61297 27.1875 7.1875C27.1875 8.34782 26.7266 9.46062 25.9061 10.2811C25.0856 11.1016 23.9728 11.5625 22.8125 11.5625C21.6522 11.5625 20.5394 11.1016 19.7189 10.2811C18.8984 9.46062 18.4375 8.34782 18.4375 7.1875Z" fill="#48484C"/>
</svg>
