<svg width="34" height="34" viewBox="0 0 34 34" fill="none" xmlns="http://www.w3.org/2000/svg">
<path d="M12.75 13.8125C12.5399 13.8125 12.3344 13.7502 12.1597 13.6334C11.985 13.5167 11.8488 13.3507 11.7684 13.1566C11.688 12.9625 11.6669 12.7488 11.7079 12.5427C11.7489 12.3366 11.8501 12.1473 11.9987 11.9987C12.1473 11.8501 12.3366 11.7489 12.5427 11.7079C12.7488 11.6669 12.9625 11.688 13.1566 11.7684C13.3507 11.8488 13.5167 11.985 13.6334 12.1597C13.7502 12.3344 13.8125 12.5399 13.8125 12.75C13.8125 13.0318 13.7006 13.302 13.5013 13.5013C13.302 13.7006 13.0318 13.8125 12.75 13.8125ZM21.25 20.1875C21.0399 20.1875 20.8344 20.2498 20.6597 20.3666C20.485 20.4833 20.3488 20.6493 20.2684 20.8434C20.188 21.0375 20.1669 21.2512 20.2079 21.4573C20.2489 21.6634 20.3501 21.8527 20.4987 22.0013C20.6473 22.1499 20.8366 22.2511 21.0427 22.2921C21.2488 22.3331 21.4625 22.312 21.6566 22.2316C21.8507 22.1512 22.0167 22.015 22.1334 21.8403C22.2502 21.6656 22.3125 21.4601 22.3125 21.25C22.3125 20.9682 22.2006 20.698 22.0013 20.4987C21.802 20.2994 21.5318 20.1875 21.25 20.1875ZM31.875 17C31.875 18.3866 30.8776 19.4265 29.997 20.3442C29.4963 20.8675 28.9784 21.4067 28.7831 21.8809C28.6025 22.3152 28.5919 23.035 28.5812 23.7323C28.5613 25.0285 28.5401 26.4974 27.5187 27.5187C26.4974 28.5401 25.0285 28.5613 23.7323 28.5812C23.035 28.5919 22.3152 28.6025 21.8809 28.7831C21.4067 28.9784 20.8675 29.4963 20.3442 29.997C19.4265 30.8776 18.3866 31.875 17 31.875C15.6134 31.875 14.5735 30.8776 13.6558 29.997C13.1325 29.4963 12.5933 28.9784 12.1191 28.7831C11.6848 28.6025 10.965 28.5919 10.2677 28.5812C8.97148 28.5613 7.50258 28.5401 6.48125 27.5187C5.45992 26.4974 5.43867 25.0285 5.41875 23.7323C5.40812 23.035 5.3975 22.3152 5.21687 21.8809C5.02164 21.4067 4.50367 20.8675 4.00297 20.3442C3.12242 19.4265 2.125 18.3866 2.125 17C2.125 15.6134 3.12242 14.5735 4.00297 13.6558C4.50367 13.1325 5.02164 12.5933 5.21687 12.1191C5.3975 11.6848 5.40812 10.965 5.41875 10.2677C5.43867 8.97148 5.45992 7.50258 6.48125 6.48125C7.50258 5.45992 8.97148 5.43867 10.2677 5.41875C10.965 5.40812 11.6848 5.3975 12.1191 5.21687C12.5933 5.02164 13.1325 4.50367 13.6558 4.00297C14.5735 3.12242 15.6134 2.125 17 2.125C18.3866 2.125 19.4265 3.12242 20.3442 4.00297C20.8675 4.50367 21.4067 5.02164 21.8809 5.21687C22.3152 5.3975 23.035 5.40812 23.7323 5.41875C25.0285 5.43867 26.4974 5.45992 27.5187 6.48125C28.5401 7.50258 28.5613 8.97148 28.5812 10.2677C28.5919 10.965 28.6025 11.6848 28.7831 12.1191C28.9784 12.5933 29.4963 13.1325 29.997 13.6558C30.8776 14.5735 31.875 15.6134 31.875 17ZM12.75 15.9375C13.3804 15.9375 13.9967 15.7506 14.5209 15.4003C15.0451 15.0501 15.4536 14.5522 15.6949 13.9698C15.9361 13.3874 15.9992 12.7465 15.8763 12.1281C15.7533 11.5098 15.4497 10.9419 15.0039 10.4961C14.5581 10.0503 13.9902 9.74674 13.3719 9.62375C12.7535 9.50076 12.1126 9.56388 11.5302 9.80513C10.9478 10.0464 10.4499 10.4549 10.0997 10.9791C9.74944 11.5033 9.5625 12.1196 9.5625 12.75C9.5625 13.5954 9.89832 14.4061 10.4961 15.0039C11.0939 15.6017 11.9046 15.9375 12.75 15.9375ZM23.0642 12.4392C23.1629 12.3405 23.2412 12.2233 23.2947 12.0943C23.3481 11.9653 23.3756 11.8271 23.3756 11.6875C23.3756 11.5479 23.3481 11.4097 23.2947 11.2807C23.2412 11.1517 23.1629 11.0345 23.0642 10.9358C22.9655 10.8371 22.8483 10.7588 22.7193 10.7053C22.5903 10.6519 22.4521 10.6244 22.3125 10.6244C22.1729 10.6244 22.0347 10.6519 21.9057 10.7053C21.7767 10.7588 21.6595 10.8371 21.5608 10.9358L10.9358 21.5608C10.8371 21.6595 10.7588 21.7767 10.7053 21.9057C10.6519 22.0347 10.6244 22.1729 10.6244 22.3125C10.6244 22.4521 10.6519 22.5903 10.7053 22.7193C10.7588 22.8483 10.8371 22.9655 10.9358 23.0642C11.1351 23.2636 11.4056 23.3756 11.6875 23.3756C11.8271 23.3756 11.9653 23.3481 12.0943 23.2947C12.2233 23.2412 12.3405 23.1629 12.4392 23.0642L23.0642 12.4392ZM24.4375 21.25C24.4375 20.6196 24.2506 20.0033 23.9003 19.4791C23.5501 18.9549 23.0522 18.5464 22.4698 18.3051C21.8874 18.0639 21.2465 18.0008 20.6281 18.1237C20.0098 18.2467 19.4419 18.5503 18.9961 18.9961C18.5503 19.4419 18.2467 20.0098 18.1237 20.6281C18.0008 21.2465 18.0639 21.8874 18.3051 22.4698C18.5464 23.0522 18.9549 23.5501 19.4791 23.9003C20.0033 24.2506 20.6196 24.4375 21.25 24.4375C22.0954 24.4375 22.9061 24.1017 23.5039 23.5039C24.1017 22.9061 24.4375 22.0954 24.4375 21.25Z" fill="white"/>
</svg>
