<svg width="34" height="34" viewBox="0 0 34 34" fill="none" xmlns="http://www.w3.org/2000/svg">
<path d="M24.0833 21.9584V24.0834C24.0833 24.9334 23.5167 25.5 22.6667 25.5C21.8167 25.5 21.25 24.9334 21.25 24.0834V21.9584H12.75V24.0834C12.75 24.9334 12.1833 25.5 11.3333 25.5C10.4833 25.5 9.91666 24.9334 9.91666 24.0834V21.9584H7.08333C6.09166 21.9584 5.09999 21.675 4.24999 21.25V26.9167C4.24999 29.325 6.09166 31.1667 8.49999 31.1667H25.5C27.9083 31.1667 29.75 29.325 29.75 26.9167V21.25C28.9 21.675 27.9083 21.9584 26.9167 21.9584H24.0833ZM29.75 8.50004H24.0833V7.08337C24.0833 4.67504 22.2417 2.83337 19.8333 2.83337H14.1667C11.7583 2.83337 9.91666 4.67504 9.91666 7.08337V8.50004H4.24999C3.39999 8.50004 2.83333 9.06671 2.83333 9.91671V15.5834C2.83333 17.9917 4.67499 19.8334 7.08333 19.8334H26.9167C29.325 19.8334 31.1667 17.9917 31.1667 15.5834V9.91671C31.1667 9.06671 30.6 8.50004 29.75 8.50004ZM21.25 8.50004H12.75V7.08337C12.75 6.23337 13.3167 5.66671 14.1667 5.66671H19.8333C20.6833 5.66671 21.25 6.23337 21.25 7.08337V8.50004Z" fill="white"/>
</svg>
