<svg width="36" height="36" viewBox="0 0 36 36" fill="none" xmlns="http://www.w3.org/2000/svg">
<path d="M6 17.25V23.25C6 24.495 7.005 25.5 8.25 25.5C9.495 25.5 10.5 24.495 10.5 23.25V17.25C10.5 16.005 9.495 15 8.25 15C7.005 15 6 16.005 6 17.25ZM15 17.25V23.25C15 24.495 16.005 25.5 17.25 25.5C18.495 25.5 19.5 24.495 19.5 23.25V17.25C19.5 16.005 18.495 15 17.25 15C16.005 15 15 16.005 15 17.25ZM5.25 33H29.25C30.495 33 31.5 31.995 31.5 30.75C31.5 29.505 30.495 28.5 29.25 28.5H5.25C4.005 28.5 3 29.505 3 30.75C3 31.995 4.005 33 5.25 33ZM24 17.25V23.25C24 24.495 25.005 25.5 26.25 25.5C27.495 25.5 28.5 24.495 28.5 23.25V17.25C28.5 16.005 27.495 15 26.25 15C25.005 15 24 16.005 24 17.25ZM15.855 2.23498L4.005 8.47498C3.39 8.78998 3 9.43498 3 10.125C3 11.16 3.84 12 4.875 12H29.64C30.66 12 31.5 11.16 31.5 10.125C31.5 9.43498 31.11 8.78998 30.495 8.47498L18.645 2.23498C17.775 1.76998 16.725 1.76998 15.855 2.23498Z" fill="white"/>
</svg>
