<svg width="105" height="105" viewBox="0 0 105 105" fill="none" xmlns="http://www.w3.org/2000/svg">
<path d="M5.95556 0C4.37604 0 2.86123 0.627459 1.74434 1.74434C0.627459 2.86123 0 4.37604 0 5.95556V24.7778C0 27.5392 2.23858 29.7778 5 29.7778H24.7778C27.5392 29.7778 29.7778 27.5392 29.7778 24.7778V5C29.7778 2.23858 27.5392 0 24.7778 0H5.95556ZM22.3333 17.3333C22.3333 20.0948 20.0948 22.3333 17.3333 22.3333H12.4444C9.68302 22.3333 7.44444 20.0948 7.44444 17.3333V12.4444C7.44444 9.68302 9.68302 7.44444 12.4444 7.44444H17.3333C20.0948 7.44444 22.3333 9.68302 22.3333 12.4444V17.3333Z" fill="#E46DEA"/>
<path d="M0 98.2667C0 99.8462 0.627459 101.361 1.74434 102.478C2.86123 103.595 4.37604 104.222 5.95556 104.222H24.7778C27.5392 104.222 29.7778 101.984 29.7778 99.2222V79.4445C29.7778 76.683 27.5392 74.4445 24.7778 74.4445H5C2.23858 74.4445 0 76.683 0 79.4445V98.2667ZM7.44444 86.8889C7.44444 84.1275 9.68302 81.8889 12.4444 81.8889H17.3333C20.0948 81.8889 22.3333 84.1275 22.3333 86.8889V91.7778C22.3333 94.5392 20.0948 96.7778 17.3333 96.7778H12.4444C9.68302 96.7778 7.44444 94.5392 7.44444 91.7778V86.8889Z" fill="#E46DEA"/>
<path d="M74.4445 99.2222C74.4445 101.984 76.683 104.222 79.4445 104.222H98.2667C99.8462 104.222 101.361 103.595 102.478 102.478C103.595 101.361 104.222 99.8462 104.222 98.2667V79.4445C104.222 76.683 101.984 74.4445 99.2222 74.4445H79.4445C76.683 74.4445 74.4445 76.683 74.4445 79.4445V99.2222ZM81.8889 86.8889C81.8889 84.1275 84.1275 81.8889 86.8889 81.8889H91.7778C94.5392 81.8889 96.7778 84.1275 96.7778 86.8889V91.7778C96.7778 94.5392 94.5392 96.7778 91.7778 96.7778H86.8889C84.1275 96.7778 81.8889 94.5392 81.8889 91.7778V86.8889Z" fill="#E46DEA"/>
<path d="M98.2667 0H79.4445C76.683 0 74.4445 2.23858 74.4445 5V24.7778C74.4445 27.5392 76.683 29.7778 79.4445 29.7778H99.2222C101.984 29.7778 104.222 27.5392 104.222 24.7778V5.95556C104.222 4.37604 103.595 2.86123 102.478 1.74434C101.361 0.627459 99.8462 0 98.2667 0ZM96.7778 17.3333C96.7778 20.0948 94.5392 22.3333 91.7778 22.3333H86.8889C84.1275 22.3333 81.8889 20.0948 81.8889 17.3333V12.4444C81.8889 9.68302 84.1275 7.44444 86.8889 7.44444H91.7778C94.5392 7.44444 96.7778 9.68302 96.7778 12.4444V17.3333Z" fill="#E46DEA"/>
<path d="M55.8333 22.3334C57.889 22.3334 59.5555 20.6669 59.5555 18.6111C59.5555 16.5554 57.889 14.8889 55.8333 14.8889H49.6667C46.9052 14.8889 44.6667 17.1275 44.6667 19.8889V26.0556C44.6667 28.1113 46.3332 29.7778 48.3889 29.7778C50.4446 29.7778 52.1111 28.1113 52.1111 26.0556C52.1111 23.9999 53.7776 22.3334 55.8333 22.3334Z" fill="#E46DEA"/>
<path d="M29.7778 33.5C29.7778 31.4443 31.4443 29.7778 33.5 29.7778C35.5557 29.7778 37.2222 31.4443 37.2222 33.5C37.2222 35.5557 35.5557 37.2222 33.5 37.2222C31.4443 37.2222 29.7778 35.5557 29.7778 33.5Z" fill="#E46DEA"/>
<path d="M37.2222 40.9445C37.2222 38.8887 38.8887 37.2222 40.9445 37.2222H48.3889C50.4446 37.2222 52.1111 38.8887 52.1111 40.9445C52.1111 43.0002 50.4446 44.6667 48.3889 44.6667H40.9445C38.8887 44.6667 37.2222 43.0002 37.2222 40.9445Z" fill="#E46DEA"/>
<path d="M55.8333 7.44444C57.8891 7.44444 59.5556 9.11094 59.5556 11.1667C59.5556 13.2224 61.2221 14.8889 63.2778 14.8889C65.3335 14.8889 67 13.2224 67 11.1667V5C67 2.23858 64.7614 0 62 0H42.2222C39.4608 0 37.2222 2.23858 37.2222 5V11.1667C37.2222 13.2224 38.8887 14.8889 40.9445 14.8889C43.0002 14.8889 44.6667 13.2224 44.6667 11.1667C44.6667 9.11094 46.3332 7.44444 48.3889 7.44444H55.8333Z" fill="#E46DEA"/>
<path d="M0 40.9445C0 38.8887 1.6665 37.2222 3.72222 37.2222C5.77795 37.2222 7.44444 38.8887 7.44444 40.9445V48.3889C7.44444 50.4446 5.77795 52.1111 3.72222 52.1111C1.6665 52.1111 0 50.4446 0 48.3889V40.9445Z" fill="#E46DEA"/>
<path d="M33.5 44.6667C31.4443 44.6667 29.7778 46.3332 29.7778 48.3889C29.7778 50.4446 28.1113 52.1111 26.0556 52.1111C23.9998 52.1111 22.3333 50.4446 22.3333 48.3889V40.9445C22.3333 38.8887 20.6668 37.2222 18.6111 37.2222C16.5554 37.2222 14.8889 38.8887 14.8889 40.9445V48.3889C14.8889 50.4446 13.2224 52.1111 11.1667 52.1111C9.11094 52.1111 7.44444 53.7776 7.44444 55.8333C7.44444 57.8891 5.77795 59.5556 3.72222 59.5556C1.6665 59.5556 0 61.2221 0 63.2778C0 65.3335 1.6665 67 3.72222 67H11.1667C13.2224 67 14.8889 65.3335 14.8889 63.2778C14.8889 61.2221 16.5554 59.5556 18.6111 59.5556C20.6668 59.5556 22.3333 61.2221 22.3333 63.2778C22.3333 65.3335 23.9998 67 26.0556 67C28.1113 67 29.7778 65.3335 29.7778 63.2778C29.7778 61.2221 31.4443 59.5556 33.5 59.5556C35.5557 59.5556 37.2222 57.8891 37.2222 55.8333V48.3889C37.2222 46.3332 35.5557 44.6667 33.5 44.6667Z" fill="#E46DEA"/>
<path d="M59.5556 40.9444C59.5556 43.0002 61.2221 44.6666 63.2778 44.6666C65.3335 44.6666 67 46.3331 67 48.3889C67 50.4446 68.6665 52.1111 70.7222 52.1111C72.778 52.1111 74.4444 50.4446 74.4444 48.3889C74.4444 46.3331 76.1109 44.6666 78.1667 44.6666C80.2224 44.6666 81.8889 43.0002 81.8889 40.9444C81.8889 38.8887 80.2224 37.2222 78.1667 37.2222H72C69.2386 37.2222 67 34.9836 67 32.2222V26.0555C67 23.9998 65.3335 22.3333 63.2778 22.3333C61.2221 22.3333 59.5556 23.9998 59.5556 26.0555C59.5556 28.1113 57.8891 29.7778 55.8333 29.7778C53.7776 29.7778 52.1111 31.4443 52.1111 33.5C52.1111 35.5557 53.7776 37.2222 55.8333 37.2222C57.8891 37.2222 59.5556 38.8887 59.5556 40.9444Z" fill="#E46DEA"/>
<path d="M52.1111 93.0555C52.1111 95.1113 50.4446 96.7778 48.3889 96.7778H40.9445C38.8887 96.7778 37.2222 98.4443 37.2222 100.5C37.2222 102.556 38.8887 104.222 40.9445 104.222H63.2778C65.3335 104.222 67 102.556 67 100.5C67 98.4443 65.3335 96.7778 63.2778 96.7778C61.2221 96.7778 59.5556 95.1113 59.5556 93.0555C59.5556 90.9998 57.8891 89.3333 55.8333 89.3333C53.7776 89.3333 52.1111 90.9998 52.1111 93.0555Z" fill="#E46DEA"/>
<path d="M63.2778 59.5556C65.3335 59.5556 67 57.8891 67 55.8334C67 53.7776 65.3335 52.1111 63.2778 52.1111C61.222 52.1111 59.5555 50.4446 59.5555 48.3889C59.5555 46.3332 57.889 44.6667 55.8333 44.6667C53.7776 44.6667 52.1111 46.3332 52.1111 48.3889C52.1111 50.4446 50.4446 52.1111 48.3889 52.1111C46.3332 52.1111 44.6667 53.7776 44.6667 55.8334C44.6667 57.8891 46.3332 59.5556 48.3889 59.5556C50.4446 59.5556 52.1111 61.2221 52.1111 63.2778C52.1111 65.3335 53.7776 67 55.8333 67C57.889 67 59.5555 65.3335 59.5555 63.2778C59.5555 61.2221 61.222 59.5556 63.2778 59.5556Z" fill="#E46DEA"/>
<path d="M96.7778 63.2778C96.7778 61.222 98.4443 59.5555 100.5 59.5555C102.556 59.5555 104.222 61.222 104.222 63.2778C104.222 65.3335 102.556 67 100.5 67C98.4443 67 96.7778 65.3335 96.7778 63.2778Z" fill="#E46DEA"/>
<path d="M67 63.2778C67 61.222 68.6665 59.5555 70.7222 59.5555H85.6111C87.6668 59.5555 89.3333 61.222 89.3333 63.2778C89.3333 65.3335 87.6668 67 85.6111 67H70.7222C68.6665 67 67 65.3335 67 63.2778Z" fill="#E46DEA"/>
<path d="M96.7778 40.9445C96.7778 38.8887 95.1113 37.2222 93.0556 37.2222C90.9998 37.2222 89.3333 38.8887 89.3333 40.9445C89.3333 43.0002 87.6668 44.6667 85.6111 44.6667C83.5554 44.6667 81.8889 46.3332 81.8889 48.3889C81.8889 50.4446 83.5554 52.1111 85.6111 52.1111C87.6668 52.1111 89.3333 53.7776 89.3333 55.8333C89.3333 57.8891 90.9998 59.5556 93.0556 59.5556C95.1113 59.5556 96.7778 57.8891 96.7778 55.8333C96.7778 53.7776 98.4443 52.1111 100.5 52.1111C102.556 52.1111 104.222 50.4446 104.222 48.3889C104.222 46.3332 102.556 44.6667 100.5 44.6667C98.4443 44.6667 96.7778 43.0002 96.7778 40.9445Z" fill="#E46DEA"/>
<path d="M59.5556 70.7222C59.5556 68.6665 61.2221 67 63.2778 67C65.3335 67 67 68.6665 67 70.7222V85.6111C67 87.6668 65.3335 89.3333 63.2778 89.3333C61.2221 89.3333 59.5556 87.6668 59.5556 85.6111V70.7222Z" fill="#E46DEA"/>
<path d="M37.2222 85.6111C37.2222 87.6668 38.8887 89.3333 40.9445 89.3333C43.0002 89.3333 44.6667 87.6668 44.6667 85.6111C44.6667 83.5554 46.3332 81.8889 48.3889 81.8889C50.4446 81.8889 52.1111 80.2224 52.1111 78.1667C52.1111 76.1109 50.4446 74.4444 48.3889 74.4444C46.3332 74.4444 44.6667 72.7779 44.6667 70.7222V63.2778C44.6667 61.222 43.0002 59.5555 40.9445 59.5555C38.8887 59.5555 37.2222 61.222 37.2222 63.2778V85.6111Z" fill="#E46DEA"/>
</svg>
