<svg width="28" height="28" viewBox="0 0 28 28" fill="none" xmlns="http://www.w3.org/2000/svg">
<g clip-path="url(#clip0_2006_31)">
<path fill-rule="evenodd" clip-rule="evenodd" d="M14 28C17.713 28 21.274 26.525 23.8995 23.8995C26.525 21.274 28 17.713 28 14C28 10.287 26.525 6.72601 23.8995 4.10051C21.274 1.475 17.713 0 14 0C10.287 0 6.72601 1.475 4.10051 4.10051C1.475 6.72601 0 10.287 0 14C0 17.713 1.475 21.274 4.10051 23.8995C6.72601 26.525 10.287 28 14 28ZM8.62225 8.7325C8.12408 9.48383 7.875 10.2247 7.875 10.955C7.875 11.3108 8.0325 11.641 8.3475 11.9455C8.6625 12.25 9.04808 12.4017 9.50425 12.4005C10.2801 12.4005 10.8068 11.9653 11.0845 11.095C11.3785 10.2632 11.7378 9.63317 12.1625 9.205C12.5872 8.778 13.2487 8.5645 14.147 8.5645C14.9147 8.5645 15.5418 8.77625 16.0283 9.19975C16.5136 9.62442 16.7563 10.1448 16.7563 10.7607C16.7584 11.0698 16.6761 11.3735 16.5182 11.6392C16.3561 11.909 16.1583 12.1556 15.9302 12.3725C15.5623 12.7095 15.1841 13.0351 14.7962 13.349C14.2013 13.8425 13.7276 14.2683 13.3752 14.6265C13.0253 14.9858 12.7435 15.4018 12.53 15.8743C11.9665 18.053 14.8925 18.228 15.568 16.6723C15.6497 16.5229 15.7739 16.3573 15.9408 16.1753C16.1088 15.9944 16.3316 15.7844 16.6093 15.5453C17.3173 14.9556 18.0139 14.3523 18.6988 13.7358C19.0861 13.3787 19.4203 12.9529 19.7015 12.4583C19.9919 11.9316 20.138 11.3375 20.125 10.7362C20.125 9.90558 19.8777 9.13558 19.383 8.42625C18.8895 7.71575 18.1895 7.15458 17.283 6.74275C16.3765 6.33092 15.3312 6.125 14.147 6.125C12.873 6.125 11.7582 6.37175 10.8027 6.86525C9.84725 7.35875 9.12042 7.98233 8.62225 8.7325ZM12.3672 21.1225C12.3672 21.5866 12.5516 22.0317 12.8798 22.3599C13.208 22.6881 13.6531 22.8725 14.1173 22.8725C14.5814 22.8725 15.0265 22.6881 15.3547 22.3599C15.6829 22.0317 15.8673 21.5866 15.8673 21.1225C15.8673 20.6584 15.6829 20.2133 15.3547 19.8851C15.0265 19.5569 14.5814 19.3725 14.1173 19.3725C13.6531 19.3725 13.208 19.5569 12.8798 19.8851C12.5516 20.2133 12.3672 20.6584 12.3672 21.1225Z" fill="#48484C"/>
</g>
<defs>
<clipPath id="clip0_2006_31">
<rect width="28" height="28" fill="white"/>
</clipPath>
</defs>
</svg>
