<svg width="30" height="30" viewBox="0 0 30 30" fill="none" xmlns="http://www.w3.org/2000/svg">
<path fill-rule="evenodd" clip-rule="evenodd" d="M13.2325 2.625C13.6749 2.18309 14.267 1.92307 14.8918 1.89623C15.5166 1.86938 16.1287 2.07767 16.6075 2.48L16.7675 2.62625L19.1425 5H22.5C23.1305 5.00012 23.7376 5.23847 24.1999 5.6673C24.6621 6.09613 24.9452 6.68377 24.9925 7.3125L25 7.5V10.8575L27.375 13.2325C27.8172 13.6751 28.0775 14.2673 28.1043 14.8924C28.1312 15.5175 27.9226 16.1299 27.52 16.6088L27.3737 16.7675L24.9987 19.1425V22.5C24.9989 23.1307 24.7607 23.7382 24.3318 24.2007C23.903 24.6632 23.3152 24.9464 22.6862 24.9938L22.5 25H19.1437L16.7687 27.375C16.3262 27.8173 15.7339 28.0775 15.1088 28.1044C14.4837 28.1312 13.8713 27.9227 13.3925 27.52L13.2337 27.375L10.8587 25H7.49996C6.86924 25.0002 6.26175 24.762 5.79928 24.3331C5.3368 23.9043 5.05352 23.3164 5.00621 22.6875L4.99996 22.5V19.1425L2.62496 16.7675C2.18271 16.325 1.92246 15.7327 1.89561 15.1076C1.86877 14.4825 2.07728 13.8701 2.47996 13.3913L2.62496 13.2325L4.99996 10.8575V7.5C5.00008 6.8695 5.23843 6.26232 5.66726 5.80011C6.09609 5.3379 6.68373 5.05479 7.31246 5.0075L7.49996 5H10.8575L13.2325 2.625ZM15 11.25C14.0054 11.25 13.0516 11.6451 12.3483 12.3484C11.6451 13.0516 11.25 14.0054 11.25 15C11.25 15.9946 11.6451 16.9484 12.3483 17.6517C13.0516 18.3549 14.0054 18.75 15 18.75C15.9945 18.75 16.9484 18.3549 17.6516 17.6517C18.3549 16.9484 18.75 15.9946 18.75 15C18.75 14.0054 18.3549 13.0516 17.6516 12.3484C16.9484 11.6451 15.9945 11.25 15 11.25Z" fill="#48484C"/>
</svg>
