<svg width="26" height="25" viewBox="0 0 26 25" fill="none" xmlns="http://www.w3.org/2000/svg">
<path d="M13 0C13.2486 0 13.4871 0.0987719 13.6629 0.274587C13.8387 0.450403 13.9375 0.68886 13.9375 0.9375V3.4375C13.9375 3.68614 13.8387 3.9246 13.6629 4.10041C13.4871 4.27623 13.2486 4.375 13 4.375C12.7514 4.375 12.5129 4.27623 12.3371 4.10041C12.1613 3.9246 12.0625 3.68614 12.0625 3.4375V0.9375C12.0625 0.68886 12.1613 0.450403 12.3371 0.274587C12.5129 0.0987719 12.7514 0 13 0ZM13 20.005C13.2486 20.005 13.4871 20.1038 13.6629 20.2796C13.8387 20.4554 13.9375 20.6939 13.9375 20.9425V23.4425C13.9375 23.6911 13.8387 23.9296 13.6629 24.1054C13.4871 24.2812 13.2486 24.38 13 24.38C12.7514 24.38 12.5129 24.2812 12.3371 24.1054C12.1613 23.9296 12.0625 23.6911 12.0625 23.4425V20.9425C12.0625 20.6939 12.1613 20.4554 12.3371 20.2796C12.5129 20.1038 12.7514 20.005 13 20.005ZM0.8125 12.1875C0.8125 11.9389 0.911272 11.7004 1.08709 11.5246C1.2629 11.3488 1.50136 11.25 1.75 11.25H4.25C4.49864 11.25 4.7371 11.3488 4.91291 11.5246C5.08873 11.7004 5.1875 11.9389 5.1875 12.1875C5.1875 12.4361 5.08873 12.6746 4.91291 12.8504C4.7371 13.0262 4.49864 13.125 4.25 13.125H1.75C1.50136 13.125 1.2629 13.0262 1.08709 12.8504C0.911272 12.6746 0.8125 12.4361 0.8125 12.1875ZM20.8125 12.1875C20.8125 11.9389 20.9113 11.7004 21.0871 11.5246C21.2629 11.3488 21.5014 11.25 21.75 11.25H24.25C24.4986 11.25 24.7371 11.3488 24.9129 11.5246C25.0887 11.7004 25.1875 11.9389 25.1875 12.1875C25.1875 12.4361 25.0887 12.6746 24.9129 12.8504C24.7371 13.0262 24.4986 13.125 24.25 13.125H21.75C21.5014 13.125 21.2629 13.0262 21.0871 12.8504C20.9113 12.6746 20.8125 12.4361 20.8125 12.1875ZM22.4125 2.775C22.5881 2.95078 22.6867 3.18906 22.6867 3.4375C22.6867 3.68594 22.5881 3.92422 22.4125 4.1L19.9125 6.6C19.8267 6.69211 19.7232 6.76599 19.6082 6.81723C19.4932 6.86847 19.369 6.89602 19.2432 6.89824C19.1173 6.90046 18.9922 6.8773 18.8755 6.83015C18.7588 6.783 18.6527 6.71282 18.5637 6.6238C18.4747 6.53477 18.4045 6.42873 18.3573 6.312C18.3102 6.19526 18.287 6.07023 18.2893 5.94435C18.2915 5.81847 18.319 5.69433 18.3703 5.57933C18.4215 5.46433 18.4954 5.36083 18.5875 5.275L21.0875 2.775C21.2633 2.59944 21.5016 2.50082 21.75 2.50082C21.9984 2.50082 22.2367 2.59944 22.4125 2.775ZM3.5875 2.775C3.76328 2.59944 4.00156 2.50082 4.25 2.50082C4.49844 2.50082 4.73672 2.59944 4.9125 2.775L7.4125 5.275C7.5781 5.45272 7.66825 5.68778 7.66397 5.93065C7.65968 6.17353 7.56129 6.40526 7.38953 6.57703C7.21776 6.74879 6.98603 6.84718 6.74315 6.85147C6.50028 6.85575 6.26522 6.7656 6.0875 6.6L3.5875 4.1C3.41194 3.92422 3.31332 3.68594 3.31332 3.4375C3.31332 3.18906 3.41194 2.95078 3.5875 2.775ZM7.4125 17.775C7.58806 17.9508 7.68668 18.1891 7.68668 18.4375C7.68668 18.6859 7.58806 18.9242 7.4125 19.1L4.9125 21.6C4.73478 21.7656 4.49972 21.8558 4.25685 21.8515C4.01397 21.8472 3.78224 21.7488 3.61047 21.577C3.43871 21.4053 3.34032 21.1735 3.33603 20.9307C3.33175 20.6878 3.4219 20.4527 3.5875 20.275L6.0875 17.775C6.26328 17.5994 6.50156 17.5008 6.75 17.5008C6.99844 17.5008 7.23672 17.5994 7.4125 17.775ZM18.5875 17.775C18.7633 17.5994 19.0016 17.5008 19.25 17.5008C19.4984 17.5008 19.7367 17.5994 19.9125 17.775L22.4125 20.275C22.5046 20.3608 22.5785 20.4643 22.6297 20.5793C22.681 20.6943 22.7085 20.8185 22.7107 20.9443C22.713 21.0702 22.6898 21.1953 22.6427 21.312C22.5955 21.4287 22.5253 21.5348 22.4363 21.6238C22.3473 21.7128 22.2412 21.783 22.1245 21.8302C22.0078 21.8773 21.8827 21.9005 21.7568 21.8982C21.631 21.896 21.5068 21.8685 21.3918 21.8172C21.2768 21.766 21.1733 21.6921 21.0875 21.6L18.5875 19.1C18.4119 18.9242 18.3133 18.6859 18.3133 18.4375C18.3133 18.1891 18.4119 17.9508 18.5875 17.775ZM13 6.25C11.4253 6.25 9.91505 6.87556 8.80155 7.98905C7.68806 9.10255 7.0625 10.6128 7.0625 12.1875C7.0625 13.7622 7.68806 15.2724 8.80155 16.3859C9.91505 17.4994 11.4253 18.125 13 18.125C14.5747 18.125 16.0849 17.4994 17.1984 16.3859C18.3119 15.2724 18.9375 13.7622 18.9375 12.1875C18.9375 10.6128 18.3119 9.10255 17.1984 7.98905C16.0849 6.87556 14.5747 6.25 13 6.25Z" fill="#2E2E33"/>
</svg>
