<?xml version="1.0" encoding="utf-8"?><svg viewBox="0 0 1421 785" xmlns="http://www.w3.org/2000/svg" xmlns:xlink="http://www.w3.org/1999/xlink"><style>:root>svg{display:none}:root>svg:target{display:block}</style><svg viewBox="0 0 27 18" id="arrow" xmlns="http://www.w3.org/2000/svg"><path d="M25 9H3m0 0l7.071-7M3 9l7.071 7"/></svg><svg viewBox="0 0 486 785" id="backBottom" xmlns="http://www.w3.org/2000/svg"><path d="M3 1120c35-127.167 171.4-390.4 437-426C705.6 658.4 798.667 218.5 812 3"/><path d="M62.5 1166c35-127.17 171.4-390.4 437-426 265.6-35.6 358.667-475.5 372-691"/><path d="M129.5 1210c35-127.17 171.4-390.4 437-426 265.6-35.6 358.667-475.5 372-691"/><defs><linearGradient id="aba" x1="407.5" y1="3" x2="14" y2="1092" gradientUnits="userSpaceOnUse"><stop stop-color="#C261FF"/><stop offset="1" stop-color="#0D0D0D"/></linearGradient><linearGradient id="abb" x1="467" y1="49" x2="428" y2="941" gradientUnits="userSpaceOnUse"><stop stop-color="#C261FF"/><stop offset="1" stop-color="#0D0D0D"/></linearGradient><linearGradient id="abc" x1="534" y1="93" x2="473.5" y2="853" gradientUnits="userSpaceOnUse"><stop stop-color="#C261FF"/><stop offset="1" stop-color="#0D0D0D"/></linearGradient></defs></svg><svg viewBox="0 0 1421 584" id="backTop" xmlns="http://www.w3.org/2000/svg"><path d="M1338.44 127.849c-130.38 19.914-426.36 2.749-567.201-225.23-140.841-227.979-580.444-133.518-782.64-57.79"/><path d="M1356.17 54.76c-130.38 19.915-426.361 2.75-567.202-225.229-140.841-227.98-580.443-133.519-782.64-57.791"/><path d="M1369.01-24.36c-130.38 19.915-426.356 2.75-567.197-225.23-140.842-227.979-580.444-133.518-782.64-57.79"/><defs><linearGradient id="aca" x1="153.593" y1="214.149" x2="1308.39" y2="129.226" gradientUnits="userSpaceOnUse"><stop stop-color="#C261FF"/><stop offset="1" stop-color="#0D0D0D"/></linearGradient><linearGradient id="acb" x1="171.322" y1="141.06" x2="1001.65" y2="-187.175" gradientUnits="userSpaceOnUse"><stop stop-color="#C261FF"/><stop offset="1" stop-color="#0D0D0D"/></linearGradient><linearGradient id="acc" x1="184.167" y1="61.94" x2="902.746" y2="-192.823" gradientUnits="userSpaceOnUse"><stop stop-color="#C261FF"/><stop offset="1" stop-color="#0D0D0D"/></linearGradient></defs></svg><svg viewBox="0 0 340 148" id="cardBack" xmlns="http://www.w3.org/2000/svg"><path d="M0 0l248.233 24.337c4.469.438 8.982.012 13.29-1.256L340 0v133c0 8.284-6.716 15-15 15H15c-8.284 0-15-6.716-15-15V0z"/></svg><svg viewBox="0 0 110 110" id="check" xmlns="http://www.w3.org/2000/svg"><circle cx="55" cy="55" r="55"/><path d="M35 54.711L48.53 68 75 42"/></svg><svg viewBox="0 0 32 32" id="cms" xmlns="http://www.w3.org/2000/svg"><path d="M5.037 4.873c-.241.48-.36 1.075-.597 2.262l-.797 3.986a4.08 4.08 0 108.057 1.206l.093-.92a4.223 4.223 0 108.41-.051l.097.97a4.08 4.08 0 108.057-1.205l-.797-3.986c-.237-1.187-.356-1.78-.597-2.262a4.002 4.002 0 00-2.518-2.064c-.52-.142-1.125-.142-2.336-.142H9.891c-1.211 0-1.816 0-2.336.142a4 4 0 00-2.518 2.064zM24.36 18a6.04 6.04 0 002.974-.775v1.442c0 5.028 0 7.542-1.562 9.104-1.258 1.258-3.131 1.502-6.438 1.55v-4.654c0-1.247 0-1.87-.268-2.334a2 2 0 00-.732-.732c-.464-.268-1.086-.268-2.333-.268s-1.87 0-2.333.268a2 2 0 00-.732.732c-.268.464-.268 1.087-.268 2.334v4.654c-3.307-.048-5.18-.293-6.438-1.55-1.562-1.562-1.562-4.076-1.562-9.104v-1.442A6.04 6.04 0 007.643 18a6.067 6.067 0 004.149-1.637A6.187 6.187 0 0016 18a6.187 6.187 0 004.208-1.637A6.07 6.07 0 0024.358 18z"/></svg><svg viewBox="0 0 34 33" id="copy" xmlns="http://www.w3.org/2000/svg"><path fill-rule="evenodd" clip-rule="evenodd" d="M5.667 25.5V2.833h17v2.834H8.5V25.5H5.667zm22.666-17h-17v22.667h17V8.5z"/></svg><svg viewBox="0 0 29 29" id="create" xmlns="http://www.w3.org/2000/svg"><path d="M14.25 1.5V27M27 14.25H1.5"/></svg><svg viewBox="0 0 36 36" id="home" xmlns="http://www.w3.org/2000/svg"><path fill-rule="evenodd" clip-rule="evenodd" d="M28.125 28.39a3.367 3.367 0 001.125-2.515V15.698a3.375 3.375 0 00-1.316-2.675l-7.875-6.057a3.375 3.375 0 00-4.118 0l-7.875 6.057a3.375 3.375 0 00-1.316 2.678v10.174a3.366 3.366 0 003.36 3.375h1.14v-7.875a4.5 4.5 0 014.5-4.5h4.5a4.5 4.5 0 014.5 4.5v7.875h1.14a3.365 3.365 0 002.235-.86zm4.5-2.515a6.75 6.75 0 01-6.75 6.75h-15.75a6.75 6.75 0 01-6.75-6.75V15.698a6.75 6.75 0 012.633-5.348l7.875-6.057a6.75 6.75 0 018.235 0l7.875 6.057a6.75 6.75 0 012.632 5.35v10.175zm-11.25-4.5a1.125 1.125 0 00-1.125-1.125h-4.5a1.125 1.125 0 00-1.125 1.125v7.875h6.75v-7.875z"/></svg><svg viewBox="0 0 36 36" id="logout" xmlns="http://www.w3.org/2000/svg"><path d="M18 3.75a2.25 2.25 0 010 4.5h-7.5a.75.75 0 00-.75.75v18a.75.75 0 00.75.75h6.75a2.25 2.25 0 010 4.5H10.5A5.25 5.25 0 015.25 27V9a5.25 5.25 0 015.25-5.25H18zm9.09 8.415l4.244 4.245a2.25 2.25 0 010 3.18l-4.242 4.245a2.25 2.25 0 01-3.183-3.183l.402-.402H18a2.25 2.25 0 010-4.5h6.31l-.401-.402a2.25 2.25 0 113.183-3.182l-.002-.001z"/></svg><svg viewBox="0 0 28 28" id="mage_notification" xmlns="http://www.w3.org/2000/svg"><path d="M24.688 19.432a2.637 2.637 0 01-.479 1.27 2.647 2.647 0 01-2.204 1.166h-3.43c-.061.314-.15.622-.269.92a4.667 4.667 0 01-2.543 2.54 4.672 4.672 0 01-1.82.339h-.093a4.55 4.55 0 01-1.68-.339 4.375 4.375 0 01-1.54-1.015 4.492 4.492 0 01-1.015-1.526 5.132 5.132 0 01-.269-.92h-3.29a2.613 2.613 0 01-2.263-.99 3.243 3.243 0 01-.303-2.762 7.8 7.8 0 011.026-1.888 4.469 4.469 0 00.957-2.063c0-3.367 0-4.509 1.843-6.7A6.65 6.65 0 019.533 5.74l.91-.443a.467.467 0 00.117-.105.349.349 0 00.07-.152 3.5 3.5 0 015.53-1.993 3.173 3.173 0 011.166 2.051v.117a.408.408 0 00.128.117l.84.408a6.683 6.683 0 012.217 1.713c1.844 2.202 1.844 3.344 1.844 6.712a4.89 4.89 0 001.038 2.19c.42.562.76 1.178 1.015 1.83.191.387.288.814.28 1.247z"/></svg><svg viewBox="0 0 32 32" id="moon" xmlns="http://www.w3.org/2000/svg"><path d="M15.616 4.6a1 1 0 00-.89-1.596C7.505 3.663 3.476 9.34 3.04 15.144c-.437 5.815 2.716 11.967 9.935 13.555 7.581 1.666 15.296-3.783 16.021-11.528a1 1 0 00-1.585-.902c-3.783 2.759-8.107 1.755-10.848-.965-2.739-2.719-3.734-6.985-.947-10.704z"/></svg><svg viewBox="0 0 34 23" id="network" xmlns="http://www.w3.org/2000/svg"><path d="M5.1 9.857c1.875 0 3.4-1.473 3.4-3.286 0-1.812-1.525-3.285-3.4-3.285S1.7 4.759 1.7 6.57c0 1.813 1.525 3.286 3.4 3.286zm23.8 0c1.875 0 3.4-1.473 3.4-3.286 0-1.812-1.525-3.285-3.4-3.285s-3.4 1.473-3.4 3.285c0 1.813 1.525 3.286 3.4 3.286zm1.7 1.643h-3.4a3.45 3.45 0 00-2.396.955c2.141 1.134 3.66 3.183 3.99 5.616H32.3c.94 0 1.7-.734 1.7-1.642v-1.643c0-1.813-1.525-3.286-3.4-3.286zm-13.6 0c3.288 0 5.95-2.572 5.95-5.75S20.288 0 17 0c-3.288 0-5.95 2.572-5.95 5.75S13.712 11.5 17 11.5zm4.08 1.643h-.44a8.61 8.61 0 01-3.64.821 8.628 8.628 0 01-3.64-.821h-.44c-3.379 0-6.12 2.649-6.12 5.914v1.479C6.8 21.896 7.942 23 9.35 23h15.3c1.408 0 2.55-1.104 2.55-2.464v-1.479c0-3.265-2.741-5.914-6.12-5.914zm-11.884-.688A3.45 3.45 0 006.8 11.5H3.4c-1.875 0-3.4 1.473-3.4 3.286v1.643c0 .908.76 1.642 1.7 1.642h3.5c.336-2.433 1.855-4.482 3.996-5.616z"/></svg><svg viewBox="0 0 32 32" id="news" xmlns="http://www.w3.org/2000/svg"><path d="M6.667 28c-.734 0-1.361-.26-1.883-.783A2.573 2.573 0 014 25.333V6.667c0-.734.261-1.361.784-1.883A2.574 2.574 0 016.667 4h14.666L28 10.667v14.666a2.57 2.57 0 01-.783 1.884 2.561 2.561 0 01-1.884.783H6.667zm2.666-5.333h13.334V20H9.333v2.667zm0-5.334h13.334v-2.666H9.333v2.666zM20 12h5.333L20 6.667V12zM9.333 12H16V9.333H9.333V12z"/></svg><svg viewBox="0 0 9 15" id="next" xmlns="http://www.w3.org/2000/svg"><path d="M1 14l6.5-6.5L1 1"/></svg><svg viewBox="0 0 30 30" id="notification" xmlns="http://www.w3.org/2000/svg"><path d="M11.709 2.813h2.666a.937.937 0 010 1.874H11.75c-1.415 0-2.421 0-3.207.066-.775.062-1.257.183-1.638.377A4.062 4.062 0 005.13 6.905c-.194.381-.314.862-.377 1.638-.064.787-.066 1.792-.066 3.207v6.5c0 1.416 0 2.421.066 3.207.062.776.183 1.257.377 1.638a4.063 4.063 0 001.775 1.775c.381.194.862.314 1.638.377.787.064 1.792.066 3.207.066h6.5c1.416 0 2.421 0 3.207-.066.776-.062 1.257-.183 1.638-.377a4.063 4.063 0 001.775-1.775c.194-.381.314-.862.377-1.637.064-.788.066-1.793.066-3.208v-2.625a.938.938 0 011.875 0v2.666c0 1.365 0 2.448-.072 3.319-.072.893-.225 1.646-.575 2.336a5.937 5.937 0 01-2.595 2.594c-.69.351-1.444.504-2.336.576-.871.072-1.954.072-3.319.072H11.71c-1.365 0-2.448 0-3.319-.072-.893-.072-1.646-.225-2.335-.575a5.938 5.938 0 01-2.595-2.595c-.351-.69-.504-1.444-.576-2.336-.071-.871-.071-1.954-.071-3.319V11.71c0-1.365 0-2.448.07-3.319.073-.893.226-1.646.576-2.335A5.937 5.937 0 016.055 3.46c.688-.351 1.442-.504 2.335-.576.871-.071 1.954-.071 3.319-.071zm6.729 4.374a4.376 4.376 0 118.752 0 4.376 4.376 0 01-8.753 0z"/></svg><svg viewBox="0 0 34 34" id="partner_1" xmlns="http://www.w3.org/2000/svg"><path d="M24.083 21.958v2.125c0 .85-.566 1.417-1.416 1.417s-1.417-.567-1.417-1.417v-2.125h-8.5v2.125c0 .85-.567 1.417-1.417 1.417-.85 0-1.416-.567-1.416-1.417v-2.125H7.083c-.991 0-1.983-.283-2.833-.708v5.667c0 2.408 1.842 4.25 4.25 4.25h17c2.408 0 4.25-1.842 4.25-4.25V21.25c-.85.425-1.842.708-2.833.708h-2.834zM29.75 8.5h-5.667V7.083c0-2.408-1.841-4.25-4.25-4.25h-5.666c-2.409 0-4.25 1.842-4.25 4.25V8.5H4.25c-.85 0-1.417.567-1.417 1.417v5.666c0 2.409 1.842 4.25 4.25 4.25h19.834c2.408 0 4.25-1.841 4.25-4.25V9.917c0-.85-.567-1.417-1.417-1.417zm-8.5 0h-8.5V7.083c0-.85.567-1.416 1.417-1.416h5.666c.85 0 1.417.566 1.417 1.416V8.5z"/></svg><svg viewBox="0 0 16 16" id="partner_2" xmlns="http://www.w3.org/2000/svg"><path d="M.294 13.418c0-2.4 1.945-4.345 4.344-4.345h6.825c2.4 0 4.345 1.945 4.345 4.345a2.286 2.286 0 01-2.287 2.286H2.581a2.286 2.286 0 01-2.287-2.286z"/><ellipse cx="8.051" cy="3.839" rx="3.71" ry="3.839"/></svg><svg viewBox="0 0 36 36" id="partner_3" xmlns="http://www.w3.org/2000/svg"><path d="M6 17.25v6a2.247 2.247 0 002.25 2.25 2.247 2.247 0 002.25-2.25v-6A2.247 2.247 0 008.25 15 2.247 2.247 0 006 17.25zm9 0v6a2.247 2.247 0 002.25 2.25 2.247 2.247 0 002.25-2.25v-6A2.247 2.247 0 0017.25 15 2.247 2.247 0 0015 17.25zM5.25 33h24a2.247 2.247 0 002.25-2.25 2.247 2.247 0 00-2.25-2.25h-24A2.247 2.247 0 003 30.75 2.247 2.247 0 005.25 33zM24 17.25v6a2.247 2.247 0 002.25 2.25 2.247 2.247 0 002.25-2.25v-6A2.247 2.247 0 0026.25 15 2.247 2.247 0 0024 17.25zM15.855 2.235l-11.85 6.24A1.862 1.862 0 003 10.125C3 11.16 3.84 12 4.875 12H29.64c1.02 0 1.86-.84 1.86-1.875 0-.69-.39-1.335-1.005-1.65l-11.85-6.24a2.964 2.964 0 00-2.79 0z"/></svg><svg viewBox="0 0 34 34" id="partner_4" xmlns="http://www.w3.org/2000/svg"><path d="M12.75 13.813a1.062 1.062 0 110-2.125 1.062 1.062 0 010 2.124zm8.5 6.374a1.062 1.062 0 100 2.125 1.062 1.062 0 000-2.125zM31.875 17c0 1.387-.997 2.427-1.878 3.344-.5.523-1.019 1.063-1.214 1.537-.18.434-.191 1.154-.202 1.851-.02 1.297-.04 2.765-1.062 3.787-1.022 1.021-2.49 1.042-3.787 1.062-.697.01-1.417.021-1.851.202-.474.195-1.014.713-1.537 1.214-.918.88-1.957 1.878-3.344 1.878-1.387 0-2.427-.997-3.344-1.878-.524-.5-1.063-1.019-1.537-1.214-.434-.18-1.154-.191-1.851-.202-1.297-.02-2.765-.04-3.787-1.062-1.021-1.022-1.042-2.49-1.062-3.787-.01-.697-.021-1.417-.202-1.851-.195-.474-.713-1.014-1.214-1.537-.88-.918-1.878-1.957-1.878-3.344 0-1.387.997-2.427 1.878-3.344.5-.524 1.019-1.063 1.214-1.537.18-.434.191-1.154.202-1.851.02-1.297.04-2.765 1.062-3.787C7.503 5.46 8.971 5.44 10.268 5.42c.697-.01 1.417-.021 1.851-.202.474-.195 1.014-.713 1.537-1.214.917-.88 1.957-1.878 3.344-1.878 1.387 0 2.427.997 3.344 1.878.523.5 1.063 1.019 1.537 1.214.434.18 1.154.191 1.851.202 1.297.02 2.765.04 3.787 1.062 1.021 1.022 1.042 2.49 1.062 3.787.01.697.021 1.417.202 1.851.195.474.713 1.014 1.214 1.537.88.917 1.878 1.957 1.878 3.344zM12.75 15.937a3.187 3.187 0 100-6.374 3.187 3.187 0 000 6.374zm10.314-3.498a1.064 1.064 0 00-1.158-1.734 1.064 1.064 0 00-.345.23L10.936 21.562a1.064 1.064 0 001.158 1.734c.13-.054.247-.132.345-.23L23.064 12.44zm1.373 8.811a3.187 3.187 0 10-6.374 0 3.187 3.187 0 006.375 0z"/></svg><svg viewBox="0 0 10 15" id="prev" xmlns="http://www.w3.org/2000/svg"><path d="M8.5 14L2 7.5 8.5 1"/></svg><svg viewBox="0 0 105 105" id="qr" xmlns="http://www.w3.org/2000/svg"><path d="M5.956 0A5.956 5.956 0 000 5.956v18.822a5 5 0 005 5h19.778a5 5 0 005-5V5a5 5 0 00-5-5H5.956zm16.377 17.333a5 5 0 01-5 5h-4.889a5 5 0 01-5-5v-4.889a5 5 0 015-5h4.89a5 5 0 015 5v4.89zM0 98.267a5.956 5.956 0 005.956 5.955h18.822a5 5 0 005-5V79.445a5 5 0 00-5-5H5a5 5 0 00-5 5v18.822zm7.444-11.378a5 5 0 015-5h4.89a5 5 0 015 5v4.889a5 5 0 01-5 5h-4.89a5 5 0 01-5-5v-4.89zm67.001 12.333a5 5 0 005 5h18.822a5.955 5.955 0 005.955-5.955V79.445a5 5 0 00-5-5H79.445a5 5 0 00-5 5v19.777zm7.444-12.333a5 5 0 015-5h4.889a5 5 0 015 5v4.889a5 5 0 01-5 5h-4.89a5 5 0 01-5-5v-4.89zM98.267 0H79.445a5 5 0 00-5 5v19.778a5 5 0 005 5h19.777a5 5 0 005-5V5.956A5.955 5.955 0 0098.267 0zm-1.49 17.333a5 5 0 01-5 5H86.89a5 5 0 01-5-5v-4.889a5 5 0 015-5h4.889a5 5 0 015 5v4.89zm-40.944 5a3.722 3.722 0 000-7.444h-6.166a5 5 0 00-5 5v6.167a3.722 3.722 0 007.444 0 3.722 3.722 0 013.722-3.723zM29.778 33.5a3.722 3.722 0 117.444 0 3.722 3.722 0 01-7.444 0zm7.444 7.444a3.722 3.722 0 013.722-3.722h7.445a3.722 3.722 0 010 7.445h-7.445a3.722 3.722 0 01-3.722-3.723z"/><path d="M55.833 7.444a3.722 3.722 0 013.723 3.723 3.722 3.722 0 007.444 0V5a5 5 0 00-5-5H42.222a5 5 0 00-5 5v6.167a3.722 3.722 0 007.445 0 3.722 3.722 0 013.722-3.723h7.444zM0 40.944a3.722 3.722 0 117.444 0v7.445a3.722 3.722 0 01-7.444 0v-7.445zm33.5 3.723a3.722 3.722 0 00-3.722 3.722 3.722 3.722 0 01-7.445 0v-7.445a3.722 3.722 0 10-7.444 0v7.445a3.722 3.722 0 01-3.722 3.722 3.722 3.722 0 00-3.723 3.722 3.722 3.722 0 01-3.722 3.723 3.722 3.722 0 000 7.444h7.445a3.722 3.722 0 003.722-3.722 3.722 3.722 0 017.444 0 3.722 3.722 0 007.445 0 3.722 3.722 0 013.722-3.722 3.722 3.722 0 003.722-3.723V48.39a3.722 3.722 0 00-3.722-3.722zm26.056-3.723a3.722 3.722 0 003.722 3.723A3.722 3.722 0 0167 48.389a3.722 3.722 0 007.444 0 3.722 3.722 0 013.723-3.722 3.722 3.722 0 100-7.445H72a5 5 0 01-5-5v-6.167a3.722 3.722 0 00-7.444 0 3.722 3.722 0 01-3.723 3.723 3.722 3.722 0 000 7.444 3.722 3.722 0 013.723 3.722zm-7.445 52.111a3.722 3.722 0 01-3.722 3.723h-7.445a3.722 3.722 0 100 7.444h22.334a3.722 3.722 0 100-7.444 3.722 3.722 0 01-3.722-3.723 3.722 3.722 0 00-7.445 0zm11.167-33.499a3.722 3.722 0 000-7.445 3.722 3.722 0 01-3.722-3.722 3.722 3.722 0 00-7.445 0 3.722 3.722 0 01-3.722 3.722 3.722 3.722 0 000 7.445 3.722 3.722 0 013.722 3.722 3.722 3.722 0 007.445 0 3.722 3.722 0 013.722-3.722zm33.5 3.722a3.722 3.722 0 117.444 0 3.722 3.722 0 01-7.444 0zm-29.778 0a3.722 3.722 0 013.722-3.722h14.89a3.722 3.722 0 010 7.444h-14.89A3.722 3.722 0 0167 63.278zm29.778-22.334a3.722 3.722 0 10-7.445 0 3.722 3.722 0 01-3.722 3.723 3.722 3.722 0 000 7.444 3.722 3.722 0 013.722 3.722 3.722 3.722 0 107.445 0 3.722 3.722 0 013.722-3.722 3.722 3.722 0 100-7.444 3.722 3.722 0 01-3.722-3.723zM59.556 70.722a3.722 3.722 0 017.444 0v14.89a3.722 3.722 0 01-7.444 0v-14.89zM37.222 85.611a3.722 3.722 0 007.445 0 3.722 3.722 0 013.722-3.722 3.722 3.722 0 000-7.445 3.722 3.722 0 01-3.722-3.722v-7.444a3.722 3.722 0 10-7.445 0V85.61z"/></svg><svg viewBox="0 0 28 28" id="question" xmlns="http://www.w3.org/2000/svg"><g clip-path="url(#awa)"><path fill-rule="evenodd" clip-rule="evenodd" d="M14 28a14 14 0 100-28 14 14 0 000 28zM8.622 8.733c-.498.75-.747 1.492-.747 2.222 0 .356.158.686.473.99.314.305.7.457 1.156.455.776 0 1.303-.435 1.58-1.305.295-.832.654-1.462 1.079-1.89.424-.427 1.086-.64 1.984-.64.768 0 1.395.211 1.881.635.486.424.728.945.728 1.56a1.7 1.7 0 01-.238.88c-.162.269-.36.516-.588.732-.368.338-.746.663-1.134.977-.595.493-1.068.92-1.42 1.277-.35.36-.633.776-.846 1.248-.563 2.179 2.363 2.354 3.038.798.082-.15.206-.315.373-.497.168-.18.39-.39.668-.63a71.987 71.987 0 002.09-1.81 5.251 5.251 0 001.002-1.277c.29-.526.437-1.12.424-1.722 0-.83-.247-1.6-.742-2.31-.493-.71-1.194-1.271-2.1-1.683-.907-.412-1.952-.618-3.136-.618-1.274 0-2.389.247-3.344.74-.956.494-1.683 1.117-2.18 1.867zm3.745 12.39a1.75 1.75 0 103.5 0 1.75 1.75 0 00-3.5 0z"/></g><defs><clipPath id="awa"><path d="M0 0h28v28H0z"/></clipPath></defs></svg><svg viewBox="0 0 30 30" id="settings" xmlns="http://www.w3.org/2000/svg"><path fill-rule="evenodd" clip-rule="evenodd" d="M13.232 2.625a2.5 2.5 0 013.376-.145l.16.146L19.141 5H22.5a2.5 2.5 0 012.492 2.313L25 7.5v3.357l2.375 2.376a2.5 2.5 0 01.145 3.376l-.146.158-2.375 2.375V22.5a2.5 2.5 0 01-2.313 2.494L22.5 25h-3.356l-2.375 2.375a2.5 2.5 0 01-3.376.145l-.16-.145L10.86 25H7.5a2.5 2.5 0 01-2.494-2.313L5 22.5v-3.358l-2.375-2.375a2.5 2.5 0 01-.145-3.376l.145-.159L5 10.858V7.5a2.5 2.5 0 012.312-2.492L7.5 5h3.357l2.376-2.375zM15 11.25a3.75 3.75 0 100 7.5 3.75 3.75 0 000-7.5z"/></svg><svg viewBox="0 0 24 24" id="settingsFill" xmlns="http://www.w3.org/2000/svg"><path d="M12 1l9.5 5.5v11L12 23l-9.5-5.5v-11L12 1zm0 14a3 3 0 100-6 3 3 0 000 6z"/></svg><svg viewBox="0 0 26 25" id="sun" xmlns="http://www.w3.org/2000/svg"><path d="M13 0a.938.938 0 01.938.938v2.5a.938.938 0 01-1.876 0v-2.5A.938.938 0 0113 0zm0 20.005a.938.938 0 01.938.938v2.5a.938.938 0 01-1.876 0v-2.5a.938.938 0 01.938-.938zM.812 12.188a.938.938 0 01.938-.938h2.5a.938.938 0 010 1.875h-2.5a.938.938 0 01-.938-.938zm20 0a.938.938 0 01.938-.938h2.5a.938.938 0 010 1.875h-2.5a.938.938 0 01-.938-.938zm1.6-9.413a.937.937 0 010 1.325l-2.5 2.5a.937.937 0 11-1.325-1.325l2.5-2.5a.938.938 0 011.326 0zm-18.825 0a.938.938 0 011.325 0l2.5 2.5A.938.938 0 016.088 6.6l-2.5-2.5a.938.938 0 010-1.325zm3.825 15a.938.938 0 010 1.325l-2.5 2.5a.937.937 0 01-1.325-1.325l2.5-2.5a.937.937 0 011.325 0zm11.175 0a.937.937 0 011.326 0l2.5 2.5a.937.937 0 11-1.326 1.325l-2.5-2.5a.937.937 0 010-1.325zM13 6.25a5.938 5.938 0 100 11.875A5.938 5.938 0 0013 6.25z"/></svg><svg viewBox="0 0 20 21" id="swipe" xmlns="http://www.w3.org/2000/svg"><path d="M9 20l9.5-9.5L9 1M1 18l7-7-7-7"/></svg></svg>